<svg xmlns="http://www.w3.org/2000/svg" viewBox="0 0 240 240" aria-hidden="true">
  <defs>
    <radialGradient id="petal" cx="50%" cy="50%" r="50%">
      <stop offset="0%" stop-color="#f6d7dc" stop-opacity="0.95"/>
      <stop offset="70%" stop-color="#e8c4cb" stop-opacity="0.8"/>
      <stop offset="100%" stop-color="#c98a9b" stop-opacity="0.35"/>
    </radialGradient>
    <radialGradient id="center" cx="50%" cy="50%" r="50%">
      <stop offset="0%" stop-color="#f6d98f"/>
      <stop offset="100%" stop-color="#e3b35a" stop-opacity="0.6"/>
    </radialGradient>
    <radialGradient id="leaf" cx="50%" cy="50%" r="50%">
      <stop offset="0%" stop-color="#c8d6bf" stop-opacity="0.9"/>
      <stop offset="100%" stop-color="#5b6e4a" stop-opacity="0.3"/>
    </radialGradient>
  </defs>
  <g transform="translate(120 120)" opacity="0.9">
    <g fill="url(#leaf)">
      <ellipse cx="-78" cy="30" rx="46" ry="16" transform="rotate(-20)"/>
      <ellipse cx="70" cy="40" rx="44" ry="15" transform="rotate(18)"/>
    </g>
    <g fill="url(#petal)">
      <ellipse cx="0" cy="-55" rx="28" ry="46"/>
      <ellipse cx="0" cy="-55" rx="28" ry="46" transform="rotate(60)"/>
      <ellipse cx="0" cy="-55" rx="28" ry="46" transform="rotate(120)"/>
      <ellipse cx="0" cy="-55" rx="28" ry="46" transform="rotate(180)"/>
      <ellipse cx="0" cy="-55" rx="28" ry="46" transform="rotate(240)"/>
      <ellipse cx="0" cy="-55" rx="28" ry="46" transform="rotate(300)"/>
    </g>
    <circle r="18" fill="url(#center)"/>
    <g fill="#e3b35a" opacity="0.8">
      <circle r="2" cx="-6" cy="-4"/>
      <circle r="2" cx="5" cy="-6"/>
      <circle r="2" cx="6" cy="4"/>
      <circle r="2" cx="-5" cy="5"/>
    </g>
  </g>
</svg>
